<svg width="886" height="592" viewBox="0 0 886 592" fill="none" xmlns="http://www.w3.org/2000/svg">
<rect width="573" height="522" rx="8" transform="matrix(-1 0 0 1 626 33)" fill="#E6E6E6"/>
<rect opacity="0.39" width="347" height="120" rx="8" transform="matrix(-1 0 0 1 579 5)" fill="#D7D5D5"/>
<rect opacity="0.39" width="252" height="129" rx="8" transform="matrix(-1 0 0 1 773 463)" fill="#D7D5D5"/>
<rect opacity="0.39" width="161.569" height="485.605" rx="8" transform="matrix(-1 0 0 1 180.419 42.6274)" fill="#D7D5D5"/>
<rect opacity="0.71" width="140" height="126" rx="8" transform="matrix(-1 0 0 1 886 453)" fill="#D7D5D5"/>
<rect opacity="0.39" width="197" height="117" rx="8" transform="matrix(-1 0 0 1 197 0)" fill="#D7D5D5"/>
<rect opacity="0.39" width="109.508" height="299.8" rx="8" transform="matrix(-1 0 0 1 109.508 274.21)" fill="#D7D5D5"/>
<rect opacity="0.39" width="110" height="471" rx="8" transform="matrix(-4.37114e-08 1 1 4.37114e-08 88 473)" fill="#D7D5D5"/>
</svg>
