<svg width="339" height="567" viewBox="0 0 339 567" fill="none" xmlns="http://www.w3.org/2000/svg">
<rect opacity="0.5" x="336.258" y="34.748" width="119.346" height="39.8286" rx="5" transform="rotate(90 336.258 34.748)" fill="#D9D9D9"/>
<rect opacity="0.5" x="329.367" y="141.618" width="119.346" height="39.8286" rx="5" transform="rotate(90 329.367 141.618)" fill="#D9D9D9"/>
<rect opacity="0.5" x="155.289" y="2.45605" width="171.907" height="28.6511" rx="5" fill="#D9D9D9"/>
<rect opacity="0.5" x="327.195" y="4.09277" width="124.428" height="39.2929" rx="5" transform="rotate(90 327.195 4.09277)" fill="#D9D9D9"/>
<rect opacity="0.5" x="325.02" y="160.446" width="119.346" height="39.573" rx="5" transform="rotate(90 325.02 160.446)" fill="#D9D9D9"/>
<rect opacity="0.5" x="326.572" y="280" width="119.346" height="39.573" rx="5" transform="rotate(90 326.572 280)" fill="#D9D9D9"/>
<rect opacity="0.5" x="338.572" y="374" width="119.346" height="39.573" rx="5" transform="rotate(90 338.572 374)" fill="#D9D9D9"/>
<rect opacity="0.5" x="329.574" y="447" width="119.346" height="39.573" rx="5" transform="rotate(90 329.574 447)" fill="#D9D9D9"/>
<rect opacity="0.5" x="15.3066" width="71.2185" height="31.1069" rx="5" fill="#D9D9D9"/>
<rect opacity="0.5" x="0.572266" y="6.54883" width="171.907" height="16.3721" rx="5" fill="#D9D9D9"/>
</svg>
